Coordinates
version=1
nRows=10
nColumns=46
inDegrees=yes

Units are S.I. units (second, meters, Newtons, ...)
Angles are in degrees.

endheader
time	pelvis_tilt	pelvis_list	pelvis_rotation	pelvis_tx	pelvis_ty	pelvis_tz	bb_angle	bb_tx	bb_ty	bb_tz	hip_flexion_r	hip_adduction_r	hip_rotation_r	knee_angle_r	knee_angle_r_beta	ankle_angle_r	subtalar_angle_r	mtp_angle_r	crank_angle_r	hip_flexion_l	hip_adduction_l	hip_rotation_l	knee_angle_l	knee_angle_l_beta	ankle_angle_l	subtalar_angle_l	mtp_angle_l	crank_angle_l	lumbar_extension	lumbar_bending	lumbar_rotation	arm_flex_r	arm_add_r	arm_rot_r	elbow_flex_r	pro_sup_r	wrist_flex_r	wrist_dev_r	arm_flex_l	arm_add_l	arm_rot_l	elbow_flex_l	pro_sup_l	wrist_flex_l	wrist_dev_l
      5.00500000	    -16.15500607	     -1.14932029	     -7.36830851	      0.15957327	      1.14499986	     -0.22502850	      0.00000000	      0.50000000	      0.00000000	      0.25000000	     61.67418752	      4.02393729	      7.02115428	     55.26477418	      0.96455227	     16.98149286	     -9.40085777	      0.00000000	      0.00000000	     54.79935494	    -10.08691965	      1.40864013	     77.06926649	      1.34511245	    -14.89299063	     -6.28349604	      0.00000000	      0.00000000	    -63.14572813	     -0.77853536	      2.04726376	     89.49876196	     -5.31087410	     31.14720143	     52.24940130	     29.36282569	      0.00000000	      0.00000000	     89.29475659	    -16.76281279	     26.83332321	     49.22569184	     29.86533326	      0.00000000	      0.00000000
      5.01000000	    -16.03743946	     -0.60981889	     -6.87786305	      0.16028578	      1.14250583	     -0.22373666	      0.00000000	      0.50000000	      0.00000000	      0.25000000	     60.41473243	      3.36869729	      7.23125548	     53.18468852	      0.92824793	     15.72604573	     -9.97372335	      0.00000000	      0.00000000	     56.14887168	     -9.31661842	      1.85283028	     79.76342723	      1.39213443	    -14.23670155	     -6.04138139	      0.00000000	      0.00000000	    -62.98154994	     -0.87338587	      1.30272223	     89.47717833	     -5.36717905	     31.71017714	     51.87211907	     29.42276667	      0.00000000	      0.00000000	     89.28029980	    -16.94903298	     27.11429113	     49.26690526	     30.01138090	      0.00000000	      0.00000000
      5.01500000	    -15.78535496	      0.19213599	     -6.46217990	      0.16109762	      1.14016111	     -0.22213306	      0.00000000	      0.50000000	      0.00000000	      0.25000000	     59.03545036	      2.60871647	      7.75556702	     51.21216947	      0.89382097	     15.01192959	     -9.75285532	      0.00000000	      0.00000000	     57.27009189	     -8.40414468	      1.98963123	     82.30634158	      1.43651666	    -13.81935810	     -6.15231751	      0.00000000	      0.00000000	    -62.92563596	     -1.34890470	      0.39242240	     89.41626079	     -5.58494244	     31.71545935	     51.76549703	     29.42126600	      0.00000000	      0.00000000	     89.31296900	    -16.77838520	     27.26763570	     49.30017756	     30.04595555	      0.00000000	      0.00000000
      5.02000000	    -15.59583290	      0.63594501	     -6.03551474	      0.16206204	      1.13743044	     -0.22002930	      0.00000000	      0.50000000	      0.00000000	      0.25000000	     57.56307343	      2.20447847	      8.15825467	     49.10345491	      0.85701696	     13.60649873	    -10.88019730	      0.00000000	      0.00000000	     58.75922842	     -8.24744320	      1.95247380	     85.12374821	      1.48568968	    -13.16973993	     -5.43667802	      0.00000000	      0.00000000	    -62.72039825	     -1.51538812	     -0.32419303	     89.41287778	     -5.56043157	     32.66397389	     50.99662992	     29.48513610	      0.00000000	      0.00000000	     89.29112563	    -17.21709593	     27.98218630	     49.27994714	     30.22325083	      0.00000000	      0.00000000
      5.02500000	    -15.57426029	      1.50026097	     -5.31639320	      0.16280384	      1.13527708	     -0.21908360	      0.00000000	      0.50000000	      0.00000000	      0.25000000	     56.26810290	      1.13798354	      8.70439605	     46.99327227	      0.82018733	     12.71044064	    -10.88173693	      0.00000000	      0.00000000	     59.97849282	     -6.76851948	      2.38082379	     87.24010277	      1.52262703	    -12.49640099	     -5.65337933	      0.00000000	      0.00000000	    -62.43076720	     -1.70222797	     -1.34523211	     89.36306781	     -5.76124481	     32.80485378	     50.75849690	     29.49643991	      0.00000000	      0.00000000	     89.29828414	    -17.13716017	     28.29604254	     49.26708303	     30.27895806	      0.00000000	      0.00000000
      5.03000000	    -15.43887400	      2.23429354	     -4.36522047	      0.16358746	      1.13293778	     -0.21794251	      0.00000000	      0.50000000	      0.00000000	      0.25000000	     54.85715191	      0.03006503	      9.05611041	     45.06742530	      0.78657496	     11.58991217	    -11.60705582	      0.00000000	      0.00000000	     61.32095989	     -5.46630010	      2.78606970	     89.50995333	      1.56224340	    -11.94754107	     -5.34117277	      0.00000000	      0.00000000	    -62.15480798	     -1.70059418	     -2.57541884	     89.33177751	     -5.72689659	     33.43983119	     49.91791872	     29.52241200	      0.00000000	      0.00000000	     89.33700226	    -17.33889574	     29.01888501	     49.08264490	     30.39436567	      0.00000000	      0.00000000
      5.03500000	    -15.39639609	      2.99103442	     -3.62995745	      0.16443892	      1.13070263	     -0.21661580	      0.00000000	      0.50000000	      0.00000000	      0.25000000	     53.49307290	     -0.92737213	      9.61487443	     43.11905858	      0.75256954	     10.84450245	    -11.60134631	      0.00000000	      0.00000000	     62.70846912	     -4.41098884	      2.86052050	     91.71388651	      1.60070929	    -11.37494547	     -5.43040287	      0.00000000	      0.00000000	    -61.83932528	     -1.97606087	     -3.52460081	     89.24597241	     -5.97819460	     33.59411204	     49.52301836	     29.51981025	      0.00000000	      0.00000000	     89.34362473	    -17.17865863	     29.34424141	     49.06710193	     30.45421563	      0.00000000	      0.00000000
      5.04000000	    -14.86758907	      4.38551597	     -2.88039525	      0.16614615	      1.13000834	     -0.21600418	      0.00000000	      0.50000000	      0.00000000	      0.25000000	     51.68599911	     -2.56580310	     10.32916386	     41.32469867	      0.72125205	      9.81769890	    -11.92831862	      0.00000000	      0.00000000	     63.32881934	     -2.83228844	      2.31410664	     93.57648187	      1.63321771	    -10.75266519	     -5.34026628	      0.00000000	      0.00000000	    -61.89121790	     -2.54548883	     -5.32406824	     89.30890827	     -6.05593544	     34.93624853	     47.86477372	     29.75420953	      0.00000000	      0.00000000	     89.40426405	    -17.60644968	     31.11293964	     48.56757306	     30.70123252	      0.00000000	      0.00000000
      5.04500000	    -14.76795147	      5.36302334	     -2.18633449	      0.16725695	      1.12825890	     -0.21495544	      0.00000000	      0.50000000	      0.00000000	      0.25000000	     50.32658466	     -3.78121834	     10.80170616	     39.59852061	      0.69112456	      9.09155327	    -11.67746347	      0.00000000	      0.00000000	     64.59999851	     -1.67796739	      2.07404687	     95.60040407	      1.66854182	    -10.13176787	     -5.42438608	      0.00000000	      0.00000000	    -61.71658491	     -3.07599040	     -6.46157187	     89.19721871	     -6.45792839	     34.90577319	     47.61118859	     29.74562660	      0.00000000	      0.00000000	     89.40905118	    -17.26274415	     31.31792527	     48.60186497	     30.74209046	      0.00000000	      0.00000000
      5.05000000	    -14.52429533	      6.35243387	     -1.21260324	      0.16808922	      1.12742879	     -0.21377966	      0.00000000	      0.50000000	      0.00000000	      0.25000000	     48.63335223	     -5.15209757	     11.18953042	     37.64184894	      0.65697420	      7.58626954	    -12.66212130	      0.00000000	      0.00000000	     65.61778662	     -0.22914822	      1.92317049	     97.26246396	      1.69755023	     -9.42922076	     -5.39897824	      0.00000000	      0.00000000	    -61.59771399	     -3.37430390	     -7.75688483	     89.21466116	     -6.93331818	     36.20869259	     46.41496715	     29.77142040	      0.00000000	      0.00000000	     89.46194634	    -16.95008918	     32.17049919	     47.93691462	     30.72404591	      0.00000000	      0.00000000
